<svg xmlns="http://www.w3.org/2000/svg" viewBox="0 0 390 844" fill="none" role="img" aria-label="TrotroOS Mate Dashboard screen">
  <rect width="390" height="844" fill="#FAFAF9"/>
  <rect width="390" height="120" fill="#E04A00"/>
  <text x="24" y="34" font-family="system-ui,sans-serif" font-size="14" font-weight="600" fill="#FFFFFF">9:41</text>
  <text x="24" y="72" font-family="system-ui,sans-serif" font-size="22" font-weight="700" fill="#FFFFFF">Mate Dashboard</text>
  <text x="24" y="98" font-family="system-ui,sans-serif" font-size="13" fill="rgba(255,255,255,0.8)">Tech Junction to Ayeduase</text>
  <rect x="24" y="140" width="160" height="88" rx="14" fill="#FFFFFF" stroke="#E8E8E6"/>
  <text x="40" y="172" font-family="system-ui,sans-serif" font-size="12" fill="#5C5C5C">Today trips</text>
  <text x="40" y="204" font-family="system-ui,sans-serif" font-size="28" font-weight="700" fill="#0A0A0A">4</text>
  <rect x="206" y="140" width="160" height="88" rx="14" fill="#FFFFFF" stroke="#E8E8E6"/>
  <text x="222" y="172" font-family="system-ui,sans-serif" font-size="12" fill="#5C5C5C">Seats open</text>
  <text x="222" y="204" font-family="system-ui,sans-serif" font-size="28" font-weight="700" fill="#00875A">2</text>
  <rect x="24" y="248" width="342" height="200" rx="16" fill="#152019"/>
  <text x="40" y="280" font-family="system-ui,sans-serif" font-size="12" font-weight="700" fill="#14B8A6">GPS BROADCASTING</text>
  <circle cx="195" cy="360" r="8" fill="#E04A00"/>
  <path d="M80 400 C140 360, 200 340, 280 320" stroke="#E04A00" stroke-width="2" opacity="0.6"/>
  <rect x="24" y="468" width="342" height="140" rx="16" fill="#FFFFFF" stroke="#E8E8E6"/>
  <text x="40" y="500" font-family="system-ui,sans-serif" font-size="14" font-weight="700" fill="#0A0A0A">Seat bids</text>
  <rect x="40" y="516" width="310" height="72" rx="12" fill="#F5F5F3"/>
  <text x="56" y="544" font-family="system-ui,sans-serif" font-size="13" font-weight="600" fill="#0A0A0A">GHS 5.00 - Ayeduase pickup</text>
  <text x="56" y="566" font-family="system-ui,sans-serif" font-size="12" fill="#5C5C5C">Passenger bid - 2 min ago</text>
  <rect x="250" y="528" width="84" height="32" rx="16" fill="#00875A"/>
  <text x="268" y="549" font-family="system-ui,sans-serif" font-size="12" font-weight="700" fill="#FFFFFF">Accept</text>
  <rect x="24" y="628" width="342" height="56" rx="28" fill="#E04A00"/>
  <text x="130" y="662" font-family="system-ui,sans-serif" font-size="15" font-weight="700" fill="#FFFFFF">Start trip</text>
</svg>
